<svg height="512.00003pt" viewBox="0 0 512.00003 512.00003" width="512.00003pt" xmlns="http://www.w3.org/2000/svg" xmlns:xlink="http://www.w3.org/1999/xlink"><linearGradient id="a" gradientTransform="matrix(.698866 0 0 -.698866 0 506.501739)" gradientUnits="userSpaceOnUse" x1="366.3076" x2="366.3076" y1="-6.929" y2="814.264"><stop offset="0" stop-color="#e93e3a"/><stop offset=".355" stop-color="#ed683c"/><stop offset=".705" stop-color="#f3903f"/><stop offset="1" stop-color="#fdc70c"/></linearGradient><g fill="url(#a)"><path d="m432 0h-352c-44.160156.0546875-79.9453125 35.839844-80 80v352c.0546875 44.160156 35.839844 79.945312 80 80h352c44.160156-.054688 79.945312-35.839844 80-80v-352c-.050781-44.160156-35.839844-79.9453125-80-80zm48 432c0 26.507812-21.488281 48-48 48h-352c-26.507812 0-48-21.488281-48-48v-352c0-26.507812 21.488281-48 48-48h352c26.507812 0 48 21.488281 48 48zm0 0"/><path d="m380.449219 108.929688-124.449219 124.445312-124.449219-124.445312-22.621093 22.621093 124.445312 124.449219-124.445312 124.449219 22.621093 22.621093 124.449219-124.445312 124.449219 124.445312 22.621093-22.621093-124.445312-124.449219 124.445312-124.449219zm0 0"/></g></svg>